Coordinates
version=1
nRows=9
nColumns=36
inDegrees=yes

Units are S.I. units (second, meters, Newtons, ...)
If the header above contains a line with 'inDegrees', this indicates whether rotational values are in degrees (yes) or radians (no).

endheader
time	pelvis_tilt	pelvis_list	pelvis_rotation	pelvis_tx	pelvis_ty	pelvis_tz	hip_flexion_r	hip_adduction_r	hip_rotation_r	knee_angle_r	knee_angle_r_beta	ankle_angle_r	subtalar_angle_r	mtp_angle_r	hip_flexion_l	hip_adduction_l	hip_rotation_l	knee_angle_l	knee_angle_l_beta	ankle_angle_l	subtalar_angle_l	mtp_angle_l	lumbar_extension	lumbar_bending	lumbar_rotation	arm_flex_r	arm_add_r	arm_rot_r	elbow_flex_r	pro_sup_r	arm_flex_l	arm_add_l	arm_rot_l	elbow_flex_l	pro_sup_l
      2.33333330	     -6.07470700	     -0.60063808	      1.89787526	      0.04909982	      0.40509779	     -0.07389048	    119.56307372	    -36.45588189	     23.72708738	    137.39607714	      2.39801393	     34.23130592	     19.81010492	     -7.49999987	    119.91266726	    -17.56443635	     15.41357462	    138.99801337	      2.42597299	     20.72893608	      2.62545720	     -7.49999987	    -56.59234642	      6.24797541	      2.48827957	     92.28515664	    -40.09011684	     56.17735279	     83.08328576	     82.63502990	     92.40522572	    -21.26138833	     52.48633265	     80.65222673	     81.86461898
      2.33750000	     -5.53112714	     -0.59618175	      1.81634548	      0.04948058	      0.40402484	     -0.07224599	    119.61034425	    -36.52392611	     24.49502549	    137.84474298	      2.40584462	     34.34804356	     20.84366996	     -7.49999987	    119.91522864	    -17.66386565	     15.88578749	    139.57261747	      2.43600172	     20.67665832	      2.87211165	     -7.49999987	    -57.19528077	      6.06035151	      2.38420816	     92.90397906	    -39.78049900	     57.25498161	     82.92269121	     80.79893793	     92.96900091	    -21.01220173	     53.45282724	     80.17568738	     80.14880099
      2.34166670	     -5.33007410	     -0.53591263	      1.73252562	      0.05085081	      0.40328949	     -0.07215060	    119.66195554	    -36.82642918	     24.84837514	    138.13444157	      2.41090082	     34.74498490	     21.56688388	     -7.49999987	    119.91540592	    -17.80910385	     16.06457594	    139.79545507	      2.43989097	     20.40682376	      2.82978371	     -7.49999987	    -57.56317930	      5.90750233	      2.22847520	     93.43945806	    -39.36157270	     58.32534211	     82.75899834	     77.79788569	     93.40260539	    -20.80869195	     54.41388070	     79.61476336	     77.23402477
      2.34583330	     -5.18481017	     -0.51513138	      1.52986962	      0.04969091	      0.40166803	     -0.06633417	    119.70406635	    -36.80538331	     24.81427725	    138.50002993	      2.41728154	     34.90570524	     21.85401626	     -7.49999987	    119.91559646	    -18.27397096	     16.64955310	    139.85354774	      2.44090488	     20.43568816	      3.41213002	     -7.49999987	    -57.98690461	      5.53179624	      2.24504133	     93.61795699	    -39.14095202	     58.59285900	     83.10650493	     77.63808919	     93.69446506	    -20.56483864	     54.87841540	     79.34352035	     77.11083513
      2.35000000	     -5.09014608	     -0.58781584	      1.34721385	      0.05241072	      0.40024716	     -0.06742373	    119.75157725	    -36.89295490	     24.60917619	    138.75256753	      2.42168915	     35.03245907	     21.36239973	     -7.49999987	    119.91457960	    -18.58439903	     17.04892109	    139.89498895	      2.44162816	     20.43276519	      3.55884292	     -7.49999987	    -58.29433142	      5.22907007	      2.55175352	     93.55212133	    -39.31848503	     58.48660530	     83.61169134	     81.18113635	     93.77654889	    -19.71961217	     54.85506837	     78.39373513	     80.96403705
      2.35416670	     -5.23591111	     -0.75377118	      1.45784341	      0.05847292	      0.40043088	     -0.07325364	    119.78511342	    -37.52232143	     24.91821197	    139.01799643	      2.42632176	     35.32065321	     20.95862370	     -7.49999987	    119.91440714	    -18.54950659	     17.06106840	    139.92047822	      2.44207304	     20.75010691	      3.27020644	     -7.49999987	    -58.28119578	      5.39167208	      2.40812894	     93.40047309	    -38.93067905	     58.78278561	     83.55417907	     80.21863965	     93.40834534	    -19.39536686	     54.93963207	     78.02829470	     80.01048620
      2.35833330	     -5.28446364	     -0.82561629	      1.38889192	      0.05320975	      0.39935648	     -0.06555371	    119.79429807	    -37.76069842	     24.64052559	    139.10648592	      2.42786619	     35.47758269	     21.37173201	     -7.49999987	    119.91418078	    -18.75464527	     17.38193964	    139.92359322	      2.44212740	     20.82075425	      3.49650039	     -7.49999987	    -58.36179177	      5.19579928	      2.33071106	     93.23413978	    -38.52344095	     59.15447037	     83.60390241	     79.31642993	     93.14327877	    -19.02391241	     55.16221167	     77.61174795	     79.11444361
      2.36250000	     -5.25131130	     -0.87068551	      1.33570150	      0.05360784	      0.39811145	     -0.06437657	    119.79327266	    -37.86747805	     24.31016487	    139.19699230	      2.42944582	     35.56079881	     22.11150009	     -7.49999987	    119.91423172	    -18.96642994	     17.76342913	    139.92126677	      2.44208680	     20.96851297	      4.10060964	     -7.49999987	    -58.55302181	      4.96475768	      2.26448977	     93.04679236	    -38.25423681	     59.50606213	     83.81548502	     78.54310633	     92.97768968	    -18.56249886	     55.42851727	     77.07678754	     78.34975377
      2.36666670	     -5.21256496	     -0.85222289	      1.20912503	      0.05166739	      0.39805924	     -0.06113814	    119.78304577	    -37.78188974	     23.86434252	    139.36219194	      2.43232910	     35.51137394	     22.69711053	     -7.49999987	    119.91521475	    -19.31369669	     18.23530036	    139.91064647	      2.44190144	     21.01894788	      4.66260058	     -7.49999987	    -58.81360094	      4.55962823	      2.17571829	     92.81016538	    -37.95395391	     59.73227939	     83.98200504	     77.84777276	     92.95459798	    -18.07547779	     55.67856546	     76.58510811	     77.67273080
